<?xml version="1.0" encoding="UTF-8" standalone="no"?>
<svg xmlns="http://www.w3.org/2000/svg" viewBox="0 0 700 700" version="1.0">
  <g transform="translate(34.807627,-332.26597)">
    <g transform="matrix(0.86747002,-0.50083405,0.49999853,0.86602287,-395.79467,49.7995)" style="stroke:none">
      <path d="m 5.5118668,1046.8503 588.9762632,0 0,-288.97628 -588.9762632,0 z" style="fill:#ffffff;fill-opacity:1;fill-rule:evenodd;stroke:none;stroke-width:1.0237335px;stroke-linecap:butt;stroke-linejoin:miter;stroke-opacity:1" />
      <path d="m 5,1039.8621 295,-227.49996 295,227.49996 0,10.3572 -590,-0.7143 z" style="fill:#000000;fill-opacity:1;fill-rule:evenodd;stroke:none;stroke-width:1px;stroke-linecap:butt;stroke-linejoin:miter;stroke-opacity:1" />
      <path d="M 10,1047.3621 300,822.36214 590,1047.3621 Z" style="fill:#ffffff;fill-opacity:1;fill-rule:evenodd;stroke:none;stroke-width:1px;stroke-linecap:butt;stroke-linejoin:miter;stroke-opacity:1" />
      <path d="M 5.5,765.21992 300.49999,992.71988 595.5,765.21992 l 0,-10.3572 -590,0.7143 z" style="fill:#000000;fill-opacity:1;fill-rule:evenodd;stroke:none;stroke-width:1px;stroke-linecap:butt;stroke-linejoin:miter;stroke-opacity:1" />
      <path d="M 10.5,757.71992 300.49999,982.71988 590.5,757.71992 Z" style="fill:#ffffff;fill-opacity:1;fill-rule:evenodd;stroke:none;stroke-width:1px;stroke-linecap:butt;stroke-linejoin:miter;stroke-opacity:1" />
      <path d="m 10.5,1042.8621 579.99999,0 0,-279.99998 -579.99999,0 z m -10.50041580121,9.5005 599.00083580121,0 0,-300.00088 -599.00083580121,0 z" style="fill:#000000;fill-opacity:1;fill-rule:evenodd;stroke:none;stroke-width:1px;stroke-linecap:butt;stroke-linejoin:miter;stroke-opacity:1" />
    </g>
  </g>
</svg>
